<svg xmlns="http://www.w3.org/2000/svg" version="1.1" xmlns:xlink="http://www.w3.org/1999/xlink" xmlns:svgjs="http://svgjs.dev/svgjs" viewBox="0 0 800 800"><defs><linearGradient x1="50%" y1="0%" x2="50%" y2="100%" id="ffflurry-grad" gradientTransform="rotate(270)"><stop stop-color="#1649ff" stop-opacity="1" offset="0%"></stop><stop stop-color="#fff" stop-opacity="1" offset="45%"></stop><stop stop-color="#ffffff" stop-opacity="1" offset="100%"></stop></linearGradient></defs><rect width="100%" height="100%" fill="#1649ff"></rect><g fill="url(#ffflurry-grad)"><rect width="102" height="2" x="572" y="761" rx="1" transform="rotate(32, 623, 762)" opacity="0.81"></rect><rect width="272" height="2" x="445" y="193" rx="1" transform="rotate(32, 581, 194)" opacity="0.69"></rect><rect width="79" height="2" x="245.5" y="357" rx="1" transform="rotate(32, 285, 358)" opacity="0.19"></rect><rect width="242" height="2" x="16" y="176" rx="1" transform="rotate(32, 137, 177)" opacity="0.56"></rect><rect width="181" height="2" x="506.5" y="280" rx="1" transform="rotate(32, 597, 281)" opacity="0.51"></rect><rect width="272" height="2" x="301" y="170" rx="1" transform="rotate(32, 437, 171)" opacity="0.60"></rect><rect width="89" height="2" x="135.5" y="656" rx="1" transform="rotate(32, 180, 657)" opacity="0.70"></rect><rect width="141" height="2" x="112.5" y="515" rx="1" transform="rotate(32, 183, 516)" opacity="0.73"></rect><rect width="70" height="2" x="710" y="339" rx="1" transform="rotate(32, 745, 340)" opacity="0.44"></rect><rect width="108" height="2" x="161" y="136" rx="1" transform="rotate(32, 215, 137)" opacity="0.49"></rect><rect width="220" height="2" x="651" y="88" rx="1" transform="rotate(32, 761, 89)" opacity="0.25"></rect><rect width="57" height="2" x="368.5" y="684" rx="1" transform="rotate(32, 397, 685)" opacity="0.19"></rect><rect width="138" height="2" x="708" y="431" rx="1" transform="rotate(32, 777, 432)" opacity="0.16"></rect><rect width="236" height="2" x="239" y="595" rx="1" transform="rotate(32, 357, 596)" opacity="0.68"></rect><rect width="45" height="2" x="178.5" y="390" rx="1" transform="rotate(32, 201, 391)" opacity="0.79"></rect><rect width="41" height="2" x="116.5" y="42" rx="1" transform="rotate(32, 137, 43)" opacity="0.33"></rect><rect width="138" height="2" x="331" y="35" rx="1" transform="rotate(32, 400, 36)" opacity="0.86"></rect><rect width="67" height="2" x="653.5" y="51" rx="1" transform="rotate(32, 687, 52)" opacity="0.86"></rect><rect width="205" height="2" x="600.5" y="541" rx="1" transform="rotate(32, 703, 542)" opacity="0.12"></rect><rect width="180" height="2" x="532" y="486" rx="1" transform="rotate(32, 622, 487)" opacity="0.51"></rect><rect width="96" height="2" x="294" y="50" rx="1" transform="rotate(32, 342, 51)" opacity="0.96"></rect><rect width="150" height="2" x="506" y="112" rx="1" transform="rotate(32, 581, 113)" opacity="0.51"></rect><rect width="146" height="2" x="701" y="655" rx="1" transform="rotate(32, 774, 656)" opacity="0.44"></rect><rect width="205" height="2" x="-49.5" y="218" rx="1" transform="rotate(32, 53, 219)" opacity="0.21"></rect><rect width="232" height="2" x="583" y="635" rx="1" transform="rotate(32, 699, 636)" opacity="0.22"></rect><rect width="51" height="2" x="195.5" y="249" rx="1" transform="rotate(32, 221, 250)" opacity="0.09"></rect><rect width="180" height="2" x="586" y="450" rx="1" transform="rotate(32, 676, 451)" opacity="0.69"></rect><rect width="136" height="2" x="679" y="263" rx="1" transform="rotate(32, 747, 264)" opacity="0.47"></rect><rect width="173" height="2" x="72.5" y="721" rx="1" transform="rotate(32, 159, 722)" opacity="0.58"></rect><rect width="62" height="2" x="516" y="612" rx="1" transform="rotate(32, 547, 613)" opacity="0.70"></rect><rect width="60" height="2" x="237" y="51" rx="1" transform="rotate(32, 267, 52)" opacity="0.69"></rect><rect width="169" height="2" x="25.5" y="611" rx="1" transform="rotate(32, 110, 612)" opacity="0.95"></rect><rect width="234" height="2" x="213" y="138" rx="1" transform="rotate(32, 330, 139)" opacity="0.74"></rect><rect width="49" height="2" x="8.5" y="151" rx="1" transform="rotate(32, 33, 152)" opacity="0.25"></rect><rect width="278" height="2" x="136" y="643" rx="1" transform="rotate(32, 275, 644)" opacity="0.91"></rect><rect width="153" height="2" x="237.5" y="232" rx="1" transform="rotate(32, 314, 233)" opacity="0.19"></rect><rect width="171" height="2" x="-61.5" y="47" rx="1" transform="rotate(32, 24, 48)" opacity="0.20"></rect><rect width="69" height="2" x="415.5" y="59" rx="1" transform="rotate(32, 450, 60)" opacity="0.99"></rect><rect width="307" height="2" x="209.5" y="337" rx="1" transform="rotate(32, 363, 338)" opacity="0.96"></rect><rect width="315" height="2" x="237.5" y="253" rx="1" transform="rotate(32, 395, 254)" opacity="0.31"></rect><rect width="192" height="2" x="193" y="727" rx="1" transform="rotate(32, 289, 728)" opacity="0.97"></rect><rect width="65" height="2" x="301.5" y="686" rx="1" transform="rotate(32, 334, 687)" opacity="0.32"></rect><rect width="188" height="2" x="129" y="585" rx="1" transform="rotate(32, 223, 586)" opacity="0.90"></rect><rect width="127" height="2" x="394.5" y="645" rx="1" transform="rotate(32, 458, 646)" opacity="0.38"></rect><rect width="115" height="2" x="31.5" y="700" rx="1" transform="rotate(32, 89, 701)" opacity="0.47"></rect><rect width="277" height="2" x="-90.5" y="763" rx="1" transform="rotate(32, 48, 764)" opacity="0.83"></rect><rect width="271" height="2" x="311.5" y="310" rx="1" transform="rotate(32, 447, 311)" opacity="0.53"></rect><rect width="260" height="2" x="66" y="42" rx="1" transform="rotate(32, 196, 43)" opacity="0.61"></rect><rect width="209" height="2" x="418.5" y="466" rx="1" transform="rotate(32, 523, 467)" opacity="0.47"></rect><rect width="131" height="2" x="697.5" y="585" rx="1" transform="rotate(32, 763, 586)" opacity="0.88"></rect><rect width="136" height="2" x="-33" y="532" rx="1" transform="rotate(32, 35, 533)" opacity="0.53"></rect><rect width="106" height="2" x="101" y="773" rx="1" transform="rotate(32, 154, 774)" opacity="0.36"></rect><rect width="74" height="2" x="248" y="454" rx="1" transform="rotate(32, 285, 455)" opacity="0.52"></rect><rect width="224" height="2" x="628" y="767" rx="1" transform="rotate(32, 740, 768)" opacity="0.74"></rect><rect width="186" height="2" x="343" y="761" rx="1" transform="rotate(32, 436, 762)" opacity="0.37"></rect><rect width="77" height="2" x="594.5" y="624" rx="1" transform="rotate(32, 633, 625)" opacity="0.76"></rect><rect width="236" height="2" x="398" y="737" rx="1" transform="rotate(32, 516, 738)" opacity="0.22"></rect><rect width="213" height="2" x="622.5" y="706" rx="1" transform="rotate(32, 729, 707)" opacity="0.99"></rect><rect width="98" height="2" x="55" y="507" rx="1" transform="rotate(32, 104, 508)" opacity="0.99"></rect><rect width="214" height="2" x="521" y="59" rx="1" transform="rotate(32, 628, 60)" opacity="0.20"></rect><rect width="201" height="2" x="290.5" y="432" rx="1" transform="rotate(32, 391, 433)" opacity="0.75"></rect><rect width="64" height="2" x="693" y="421" rx="1" transform="rotate(32, 725, 422)" opacity="0.98"></rect><rect width="163" height="2" x="168.5" y="773" rx="1" transform="rotate(32, 250, 774)" opacity="0.59"></rect><rect width="207" height="2" x="-38.5" y="282" rx="1" transform="rotate(32, 65, 283)" opacity="0.12"></rect><rect width="164" height="2" x="-43" y="381" rx="1" transform="rotate(32, 39, 382)" opacity="0.28"></rect><rect width="122" height="2" x="399" y="396" rx="1" transform="rotate(32, 460, 397)" opacity="0.78"></rect><rect width="121" height="2" x="705.5" y="512" rx="1" transform="rotate(32, 766, 513)" opacity="0.76"></rect><rect width="144" height="2" x="586" y="340" rx="1" transform="rotate(32, 658, 341)" opacity="0.50"></rect><rect width="72" height="2" x="110" y="313" rx="1" transform="rotate(32, 146, 314)" opacity="0.75"></rect><rect width="207" height="2" x="-74.5" y="657" rx="1" transform="rotate(32, 29, 658)" opacity="0.34"></rect><rect width="184" height="2" x="411" y="113" rx="1" transform="rotate(32, 503, 114)" opacity="0.83"></rect><rect width="126" height="2" x="436" y="240" rx="1" transform="rotate(32, 499, 241)" opacity="0.51"></rect><rect width="49" height="2" x="60.5" y="99" rx="1" transform="rotate(32, 85, 100)" opacity="0.09"></rect><rect width="70" height="2" x="637" y="177" rx="1" transform="rotate(32, 672, 178)" opacity="0.38"></rect><rect width="326" height="2" x="319" y="554" rx="1" transform="rotate(32, 482, 555)" opacity="0.93"></rect><rect width="257" height="2" x="162.5" y="532" rx="1" transform="rotate(32, 291, 533)" opacity="0.68"></rect><rect width="322" height="2" x="434" y="405" rx="1" transform="rotate(32, 595, 406)" opacity="0.44"></rect><rect width="271" height="2" x="265.5" y="512" rx="1" transform="rotate(32, 401, 513)" opacity="0.26"></rect><rect width="200" height="2" x="445" y="30" rx="1" transform="rotate(32, 545, 31)" opacity="0.31"></rect><rect width="163" height="2" x="672.5" y="21" rx="1" transform="rotate(32, 754, 22)" opacity="0.23"></rect><rect width="185" height="2" x="136.5" y="707" rx="1" transform="rotate(32, 229, 708)" opacity="0.31"></rect><rect width="153" height="2" x="2.5" y="26" rx="1" transform="rotate(32, 79, 27)" opacity="0.89"></rect><rect width="287" height="2" x="611.5" y="176" rx="1" transform="rotate(32, 755, 177)" opacity="0.24"></rect><rect width="197" height="2" x="500.5" y="692" rx="1" transform="rotate(32, 599, 693)" opacity="0.59"></rect><rect width="288" height="2" x="381" y="341" rx="1" transform="rotate(32, 525, 342)" opacity="0.98"></rect><rect width="110" height="2" x="58" y="426" rx="1" transform="rotate(32, 113, 427)" opacity="0.84"></rect><rect width="43" height="2" x="327.5" y="765" rx="1" transform="rotate(32, 349, 766)" opacity="0.85"></rect><rect width="49" height="2" x="588.5" y="547" rx="1" transform="rotate(32, 613, 548)" opacity="0.29"></rect></g></svg>